<?xml version="1.0" encoding="UTF-8" standalone="no"?>
<!-- Created with Inkscape (http://www.inkscape.org/) -->

<svg
   xmlns:dc="http://purl.org/dc/elements/1.1/"
   xmlns:cc="http://creativecommons.org/ns#"
   xmlns:rdf="http://www.w3.org/1999/02/22-rdf-syntax-ns#"
   xmlns:svg="http://www.w3.org/2000/svg"
   xmlns="http://www.w3.org/2000/svg"
   xmlns:sodipodi="http://sodipodi.sourceforge.net/DTD/sodipodi-0.dtd"
   xmlns:inkscape="http://www.inkscape.org/namespaces/inkscape"
   id="svg2"
   version="1.1"
   inkscape:version="0.91 r13725"
   xml:space="preserve"
   width="771.07239"
   height="448.17999"
   viewBox="0 0 771.07235 448.17999"
   sodipodi:docname="logo.svg"><metadata
     id="metadata8"><rdf:RDF><cc:Work
         rdf:about=""><dc:format>image/svg+xml</dc:format><dc:type
           rdf:resource="http://purl.org/dc/dcmitype/StillImage" /><dc:title></dc:title></cc:Work></rdf:RDF></metadata><defs
     id="defs6"><linearGradient
       x1="0"
       y1="0"
       x2="1"
       y2="0"
       gradientUnits="userSpaceOnUse"
       gradientTransform="matrix(623.96875,0,0,-623.96875,111.6665,158.06445)"
       spreadMethod="pad"
       id="linearGradient24"><stop
         style="stop-opacity:1;stop-color:#00b0f0"
         offset="0"
         id="stop26" /><stop
         style="stop-opacity:1;stop-color:#90c84b"
         offset="0.80102"
         id="stop28" /><stop
         style="stop-opacity:1;stop-color:#8cc751"
         offset="1"
         id="stop30" /></linearGradient><linearGradient
       x1="0"
       y1="0"
       x2="1"
       y2="0"
       gradientUnits="userSpaceOnUse"
       gradientTransform="matrix(623.97345,0,0,-623.97345,111.66455,183.19141)"
       spreadMethod="pad"
       id="linearGradient46"><stop
         style="stop-opacity:1;stop-color:#00b0f0"
         offset="0"
         id="stop48" /><stop
         style="stop-opacity:1;stop-color:#90c84b"
         offset="0.80102"
         id="stop50" /><stop
         style="stop-opacity:1;stop-color:#8cc751"
         offset="1"
         id="stop52" /></linearGradient><linearGradient
       x1="0"
       y1="0"
       x2="1"
       y2="0"
       gradientUnits="userSpaceOnUse"
       gradientTransform="matrix(623.96893,0,0,-623.96893,111.6665,344.3374)"
       spreadMethod="pad"
       id="linearGradient68"><stop
         style="stop-opacity:1;stop-color:#00b0f0"
         offset="0"
         id="stop70" /><stop
         style="stop-opacity:1;stop-color:#90c84b"
         offset="0.80102"
         id="stop72" /><stop
         style="stop-opacity:1;stop-color:#8cc751"
         offset="1"
         id="stop74" /></linearGradient><linearGradient
       x1="0"
       y1="0"
       x2="1"
       y2="0"
       gradientUnits="userSpaceOnUse"
       gradientTransform="matrix(623.96869,0,0,-623.96869,111.66602,318.59033)"
       spreadMethod="pad"
       id="linearGradient90"><stop
         style="stop-opacity:1;stop-color:#00b0f0"
         offset="0"
         id="stop92" /><stop
         style="stop-opacity:1;stop-color:#90c84b"
         offset="0.80102"
         id="stop94" /><stop
         style="stop-opacity:1;stop-color:#8cc751"
         offset="1"
         id="stop96" /></linearGradient><linearGradient
       x1="0"
       y1="0"
       x2="1"
       y2="0"
       gradientUnits="userSpaceOnUse"
       gradientTransform="matrix(623.96832,0,0,-623.96832,111.66797,319.02881)"
       spreadMethod="pad"
       id="linearGradient112"><stop
         style="stop-opacity:1;stop-color:#00b1df"
         offset="0"
         id="stop114" /><stop
         style="stop-opacity:1;stop-color:#00b1df"
         offset="0"
         id="stop116" /><stop
         style="stop-opacity:1;stop-color:#90c84b"
         offset="0.80102"
         id="stop118" /><stop
         style="stop-opacity:1;stop-color:#8cc751"
         offset="1"
         id="stop120" /></linearGradient><linearGradient
       x1="0"
       y1="0"
       x2="1"
       y2="0"
       gradientUnits="userSpaceOnUse"
       gradientTransform="matrix(623.97687,0,0,-623.97687,111.65869,370.94336)"
       spreadMethod="pad"
       id="linearGradient136"><stop
         style="stop-opacity:1;stop-color:#00b0f0"
         offset="0"
         id="stop138" /><stop
         style="stop-opacity:1;stop-color:#90c84b"
         offset="0.80102"
         id="stop140" /><stop
         style="stop-opacity:1;stop-color:#8cc751"
         offset="1"
         id="stop142" /></linearGradient><linearGradient
       x1="0"
       y1="0"
       x2="1"
       y2="0"
       gradientUnits="userSpaceOnUse"
       gradientTransform="matrix(623.97687,0,0,-623.97687,111.65869,259.72852)"
       spreadMethod="pad"
       id="linearGradient158"><stop
         style="stop-opacity:1;stop-color:#00b0f0"
         offset="0"
         id="stop160" /><stop
         style="stop-opacity:1;stop-color:#90c84b"
         offset="0.80102"
         id="stop162" /><stop
         style="stop-opacity:1;stop-color:#8cc751"
         offset="1"
         id="stop164" /></linearGradient><linearGradient
       x1="0"
       y1="0"
       x2="1"
       y2="0"
       gradientUnits="userSpaceOnUse"
       gradientTransform="matrix(623.96777,0,0,-623.96777,111.66699,187.5332)"
       spreadMethod="pad"
       id="linearGradient180"><stop
         style="stop-opacity:1;stop-color:#00b0f0"
         offset="0"
         id="stop182" /><stop
         style="stop-opacity:1;stop-color:#90c84b"
         offset="0.80102"
         id="stop184" /><stop
         style="stop-opacity:1;stop-color:#8cc751"
         offset="1"
         id="stop186" /></linearGradient></defs><sodipodi:namedview
     pagecolor="#ffffff"
     bordercolor="#666666"
     borderopacity="1"
     objecttolerance="10"
     gridtolerance="10"
     guidetolerance="10"
     inkscape:pageopacity="0"
     inkscape:pageshadow="2"
     inkscape:window-width="1366"
     inkscape:window-height="715"
     id="namedview4"
     showgrid="false"
     fit-margin-top="0"
     fit-margin-left="0"
     fit-margin-right="0"
     fit-margin-bottom="0"
     inkscape:zoom="0.49575185"
     inkscape:cx="537.1723"
     inkscape:cy="169.22225"
     inkscape:window-x="-8"
     inkscape:window-y="-8"
     inkscape:window-maximized="1"
     inkscape:current-layer="g10" /><g
     id="g10"
     inkscape:groupmode="layer"
     inkscape:label="logo_vibbra_editavel"
     transform="matrix(1.25,0,0,-1.25,-140.6451,560.705)"><g
       id="g4322"><g
         id="g12"><g
           id="g14"><g
             id="g20"><g
               id="g22"><path
                 inkscape:connector-curvature="0"
                 id="path32"
                 style="fill:url(#linearGradient24);stroke:none"
                 d="m 257.165,211.257 0,-106.384 c 0,-7.616 6.174,-13.787 13.79,-13.787 l 0,0 c 7.613,0 13.784,6.171 13.784,13.787 l 0,0 0,106.384 c 0,7.612 -6.171,13.785 -13.784,13.785 l 0,0 c -7.616,0 -13.79,-6.173 -13.79,-13.785" /></g></g></g></g><g
         id="g34"><g
           id="g36"><g
             id="g42"><g
               id="g44"><path
                 inkscape:connector-curvature="0"
                 id="path54"
                 style="fill:url(#linearGradient46);stroke:none"
                 d="m 308.48,262.573 0,-157.7 c 0,-7.616 6.173,-13.787 13.785,-13.787 l 0,0 c 5.418,0 10.092,3.129 12.349,7.676 l 0,0 c 8.751,-5.733 18.758,-8.742 29.202,-8.742 l 0,0 c 30.516,0 55.34,26.043 55.34,58.053 l 0,0 0,19.29 c 0,32.018 -24.824,58.058 -55.34,58.058 l 0,0 c -10.114,0 -19.594,-2.873 -27.761,-7.865 l 0,0 0,45.017 c 0,7.62 -6.174,13.789 -13.79,13.789 l 0,0 c -7.612,0 -13.785,-6.169 -13.785,-13.789 m 39.301,-139.36 c -7.325,5.706 -11.708,14.972 -11.726,24.801 l 0,0 0,19.385 c 0.018,16.794 12.465,30.448 27.761,30.448 l 0,0 c 15.307,0 27.761,-13.673 27.761,-30.484 l 0,0 0,-19.29 c 0,-16.807 -12.454,-30.476 -27.761,-30.476 l 0,0 c -5.782,0 -11.319,1.939 -16.035,5.616" /></g></g></g></g><g
         id="g56"><g
           id="g58"><g
             id="g64"><g
               id="g66"><path
                 inkscape:connector-curvature="0"
                 id="path76"
                 style="fill:url(#linearGradient68);stroke:none"
                 d="m 361.611,423.44 0,-157.696 c 0,-7.616 6.175,-13.787 13.787,-13.787 l 0,0 c 5.582,0 10.374,3.317 12.545,8.082 l 0,0 c 8.697,-5.631 18.611,-8.593 28.964,-8.593 l 0,0 c 30.517,0 55.34,26.043 55.34,58.049 l 0,0 0,19.296 c 0,32.013 -24.823,58.056 -55.34,58.056 l 0,0 c -10.095,0 -19.562,-2.864 -27.717,-7.837 l 0,0 0,44.43 c 0,7.618 -6.173,13.79 -13.792,13.79 l 0,0 c -7.612,0 -13.787,-6.172 -13.787,-13.79 m 39.262,-138.801 c -6.934,5.397 -11.223,13.978 -11.683,23.206 l 0,0 0,21.94 c 0.482,16.345 12.711,29.479 27.717,29.479 l 0,0 c 15.308,0 27.762,-13.666 27.762,-30.473 l 0,0 0,-19.296 c 0,-16.802 -12.454,-30.472 -27.762,-30.472 l 0,0 c -5.781,0 -11.322,1.939 -16.034,5.616" /></g></g></g></g><g
         id="g78"><g
           id="g80"><g
             id="g86"><g
               id="g88"><path
                 inkscape:connector-curvature="0"
                 id="path98"
                 style="fill:url(#linearGradient90);stroke:none"
                 d="m 564.026,328.234 0,-19.295 c 0,-32.005 24.83,-58.05 55.349,-58.05 l 0,0 c 10.446,0 20.456,3.006 29.206,8.739 l 0,0 c 2.253,-4.543 6.928,-7.671 12.342,-7.671 l 0,0 c 7.619,0 13.79,6.171 13.79,13.787 l 0,0 0,106.473 c 0,7.619 -6.171,13.791 -13.79,13.791 l 0,0 c -5.66,0 -10.515,-3.413 -12.64,-8.291 l 0,0 c -8.419,5.434 -18.318,8.575 -28.908,8.575 l 0,0 c -30.519,0 -55.349,-26.045 -55.349,-58.058 m 27.578,-19.295 0,19.295 c 0,16.809 12.463,30.474 27.771,30.474 l 0,0 c 15.304,0 27.761,-13.665 27.761,-30.474 l 0,0 0,-19.295 c 0,-9.847 -4.386,-19.138 -11.737,-24.864 l 0,0 c -4.703,-3.667 -10.25,-5.607 -16.024,-5.607 l 0,0 c -15.308,0 -27.771,13.669 -27.771,30.471" /></g></g></g></g><g
         id="g100"><g
           id="g102"><g
             id="g108"><g
               id="g110"><path
                 inkscape:connector-curvature="0"
                 id="path122"
                 style="fill:url(#linearGradient112);stroke:none"
                 d="m 491.467,372.309 0,-106.565 c 0,-7.616 6.173,-13.787 13.792,-13.787 l 0,0 c 7.615,0 13.79,6.171 13.79,13.787 l 0,0 0,69.266 c 0,20.658 24.429,23.13 27.283,23.352 l 0,0 c 7.559,0.517 13.301,7.059 12.814,14.639 l 0,0 c -0.485,7.595 -7.007,13.275 -14.642,12.878 l 0,0 c -7.387,-0.473 -17.425,-2.728 -26.782,-7.702 l 0,0 c -2.206,4.678 -6.95,7.924 -12.463,7.924 l 0,0 c -7.619,0 -13.792,-6.176 -13.792,-13.792" /></g></g></g></g><g
         id="g124"><g
           id="g126"><g
             id="g132"><g
               id="g134"><path
                 inkscape:connector-curvature="0"
                 id="path144"
                 style="fill:url(#linearGradient136);stroke:none"
                 d="m 701.803,434.773 0,-127.662 c 0,-7.615 6.177,-13.788 13.784,-13.788 l 0,0 c 7.615,0 13.787,6.173 13.787,13.788 l 0,0 0,127.662 c 0,7.617 -6.172,13.791 -13.787,13.791 l 0,0 c -7.607,0 -13.784,-6.174 -13.784,-13.791" /></g></g></g></g><g
         id="g146"><g
           id="g148"><g
             id="g154"><g
               id="g156"><path
                 inkscape:connector-curvature="0"
                 id="path166"
                 style="fill:url(#linearGradient158);stroke:none"
                 d="m 701.803,260.419 0,-1.384 c 0,-7.616 6.177,-13.787 13.784,-13.787 l 0,0 c 7.615,0 13.787,6.171 13.787,13.787 l 0,0 0,1.384 c 0,7.616 -6.172,13.791 -13.787,13.791 l 0,0 c -7.607,0 -13.784,-6.175 -13.784,-13.791" /></g></g></g></g><g
         id="g168"><g
           id="g170"><g
             id="g176"><g
               id="g178"><path
                 inkscape:connector-curvature="0"
                 id="path188"
                 style="fill:url(#linearGradient180);stroke:none"
                 d="m 227.694,283.981 c -6.083,0 -11.452,-3.995 -13.204,-9.822 l 0,0 -36.726,-122.245 -38.29,122.398 c -2.272,7.257 -10.015,11.281 -17.287,9.038 l 0,0 c -7.263,-2.274 -11.311,-10.008 -9.039,-17.28 l 0,0 51.719,-165.318 c 1.806,-5.752 7.138,-9.666 13.168,-9.666 l 0,0 0.076,0 c 6.053,0.032 11.382,4.013 13.122,9.821 l 0,0 46.717,155.489 31.073,0 c 7.612,0 13.79,6.177 13.79,13.797 l 0,0 c 0,7.614 -6.178,13.788 -13.79,13.788 l 0,0 -41.329,0 z" /></g></g></g></g></g></g></svg>